<?xml version="1.0" encoding="utf-8"?>
<!-- Generator: Adobe Illustrator 16.0.0, SVG Export Plug-In . SVG Version: 6.00 Build 0)  -->
<!DOCTYPE svg PUBLIC "-//W3C//DTD SVG 1.1//EN" "http://www.w3.org/Graphics/SVG/1.1/DTD/svg11.dtd">
<svg version="1.1" id="Layer_1" xmlns="http://www.w3.org/2000/svg" xmlns:xlink="http://www.w3.org/1999/xlink" x="0px" y="0px"
	 width="366.088px" height="319.594px" viewBox="0 0 366.088 319.594" enable-background="new 0 0 366.088 319.594"
	 xml:space="preserve">
<g>
	<path fill="#00A79D" d="M133.013,89.95c4.212-2.979,6.283-4.469,6.283-4.469s8.746-5.96,26.104-17.943
		c3.691-2.265,7.256-2.201,10.557,0.322c0,0,5.958,5.117,17.752,15.223c2.784,2.269,0.969,3.5-1.623,1.424
		c0,0-5.177-4.079-15.612-12.172c-8.286-8.099-15.867-0.975-9.002,6.151c0,0,7.191,6.479,21.573,19.367
		c3.887,3.819,9.202,6.345,18.33,6.864c0,0,13.602,0.062,40.808,0.325c0,0-0.065-11.271-0.195-33.813c0,0-8.938-0.128-26.945-0.387
		c-7.904,0.193-26.494-10.561-33.1-13.796c-9.133-3.952-17.943-3.305-26.559,2.006c0,0-11.465,7.773-34.455,23.255
		C120.059,87.944,126.468,93.251,133.013,89.95"/>
	<path fill="#00A79D" d="M194.095,144.037c0.387-0.646,0.717-0.712,1.034-0.261c0,0,2.075,7.708,6.349,23.122
		c0,0,2.332,0,7.126-0.062c0,0-3.366-10.555-10.17-31.736c-1.038-3.241-2.723-4.861-5.116-4.861c0,0-1.294,0-3.883,0.065
		c-1.106-0.258-1.75-1.296-1.949-3.174c3.569-0.779,6.223-4.273,6.223-8.421c0-4.792-3.5-8.615-7.777-8.615
		c-4.338,0-7.769,3.823-7.769,8.615c0,4.082,2.588,7.582,6.149,8.357c-0.257,1.941-0.903,2.979-2.007,3.237
		c-2.588-0.065-3.882-0.065-3.882-0.065c-2.337,0-4.087,1.62-5.124,4.861c-6.797,21.182-10.166,31.736-10.166,31.736
		c4.794,0.062,7.187,0.062,7.187,0.062c4.213-15.414,6.354-23.122,6.354-23.122c0.321-0.451,0.643-0.385,0.968,0.261
		c1.229,4.92,1.881,7.383,1.881,7.383c0.321,1.555-0.131,3.758-1.294,6.737c-9.976,30.507-14.904,45.794-14.904,45.794
		c7.062,0.131,10.562,0.193,10.562,0.193c6.996-20.854,10.557-31.285,10.557-31.285c0.391-1.427,0.843-2.2,1.425-2.394
		c0.65,0.193,1.042,0.967,1.493,2.394c0,0,3.496,10.431,10.496,31.285c0,0,3.496-0.062,10.618-0.193c0,0-4.985-15.287-14.899-45.794
		c-1.229-2.979-1.686-5.183-1.355-6.737C192.219,151.42,192.862,148.957,194.095,144.037"/>
	<path fill="#00A79D" d="M281.346,134.386c0,0-7.126-15.16-22.607-38.153c-5.632-6.866-10.947-0.452-7.639,6.088
		c8.155,11.599,13.405,23.901,21.826,36.082c2.267,3.693,2.137,7.188-0.387,10.555c0,0-4.668,4.147-14.77,16.003
		c-2.332,2.721-3.5,0.968-1.428-1.688c0,0,3.243-5.243,11.334-15.609c7.387-8.874-1.555-15.347-6.215-9.067
		c0,0-6.023,9.067-18.916,23.45c-3.761,3.821-6.279,9.197-6.865,18.328c0,0-0.062,13.604-0.326,40.811
		c0,0,11.273-0.066,33.812-0.199c0,0,0.135-8.998,0.395-27.007c-0.195-7.84,10.557-26.433,13.788-33.099
		C287.304,151.809,286.658,142.999,281.346,134.386"/>
	<path fill="#00A79D" d="M238.724,225.004c-4.212,2.976-6.349,4.467-6.349,4.467s-8.681,5.961-26.104,17.946
		c-3.691,2.261-7.191,2.199-10.561-0.324c0,0-5.89-5.117-17.748-15.221c-2.719-2.267-0.969-3.498,1.685-1.424
		c0,0,5.185,4.075,15.542,12.178c8.359,8.093,15.945,0.967,9.08-6.222c0,0-7.191-6.412-21.644-19.306
		c-3.817-3.815-9.132-6.347-18.261-6.859c0,0-13.604-0.134-40.811-0.323c0,0,0,11.269,0.13,33.81c0,0,9.002,0.126,27.011,0.387
		c7.838-0.197,26.429,10.557,33.099,13.798c9.072,3.95,17.944,3.303,26.498-2.011c0,0,11.525-7.774,34.52-23.252
		C251.678,227.011,245.203,221.704,238.724,225.004"/>
	<path fill="#00A79D" d="M98.555,176.101c-2.332-3.695-2.206-7.254,0.321-10.62c0,0,4.664-4.149,14.769-15.939
		c2.332-2.785,3.5-0.968,1.429,1.622c0,0-3.179,5.246-11.273,15.677c-7.452,8.807,1.49,15.284,6.153,9c0,0,6.023-9,18.912-23.383
		c3.825-3.884,6.353-9.197,6.87-18.332c0,0,0.061-13.601,0.321-40.807c0,0-11.265,0.064-33.807,0.13c0,0-0.13,9.002-0.395,27.011
		c0.195,7.837-10.557,26.494-13.792,33.1c-3.952,9.071-3.305,17.945,2.006,26.491c0,0,7.122,15.154,22.607,38.154
		c5.633,6.863,10.948,0.453,7.639-6.091C112.156,200.519,106.91,188.281,98.555,176.101"/>
	<path fill="#00A79D" d="M89.792,222.733l-8.945,5.783l-2.149-3.395c-0.456-0.693-0.72-1.304-0.802-1.833
		c-0.077-0.529-0.037-0.979,0.208-1.474c0.244-0.498,0.537-0.86,0.952-1.151c0.416-0.214,0.814-0.308,1.27-0.332
		c0.46-0.024,0.969,0.092,1.461,0.399c-0.199-0.672-0.208-1.258-0.028-1.754c0.179-0.572,0.549-0.995,1.103-1.333
		c0.415-0.285,0.887-0.434,1.343-0.454c0.464-0.083,0.854-0.051,1.229,0.114c0.378,0.104,0.745,0.331,1.107,0.693
		c0.358,0.293,0.7,0.781,1.042,1.333L89.792,222.733z M83.863,224.896l-1.245-1.939c-0.342-0.551-0.631-0.903-0.879-1.06
		c-0.236-0.281-0.545-0.375-0.871-0.405c-0.257-0.024-0.594,0.071-0.94,0.299c-0.277,0.173-0.492,0.409-0.655,0.719
		c-0.089,0.25-0.118,0.573-0.02,0.909c0.041,0.265,0.313,0.808,0.712,1.431l1.188,1.805L83.863,224.896z M87.957,222.232
		l-1.417-2.216c-0.224-0.409-0.46-0.631-0.578-0.772c-0.171-0.275-0.419-0.434-0.667-0.52c-0.249-0.154-0.505-0.179-0.77-0.139
		c-0.321-0.032-0.59,0.076-0.875,0.308c-0.337,0.161-0.565,0.466-0.72,0.775c-0.167,0.376-0.134,0.702-0.041,1.101
		c0.098,0.336,0.309,0.812,0.651,1.368l1.359,2.081L87.957,222.232z M77.665,210.059l-0.387-1.402
		c1.14-0.348,2.177-0.317,3.122,0.039c0.875,0.337,1.595,0.992,2.157,1.959c0.615,1.032,0.851,1.968,0.77,2.802
		c-0.017,0.854-0.35,1.665-0.883,2.461c-0.59,0.727-1.306,1.371-2.198,1.867c-0.964,0.561-1.904,0.861-2.816,0.904
		c-0.916,0.044-1.807-0.173-2.544-0.635c-0.741-0.458-1.392-1.104-1.831-1.932c-0.566-0.899-0.737-1.829-0.651-2.729
		c0.082-0.834,0.488-1.712,1.205-2.42l1.009,1.006c-0.574,0.594-0.895,1.213-0.952,1.792c-0.053,0.584,0.085,1.183,0.415,1.799
		c0.391,0.687,0.928,1.199,1.546,1.515c0.627,0.254,1.274,0.315,1.933,0.188c0.664-0.134,1.343-0.398,1.962-0.726
		c0.757-0.45,1.392-0.969,1.835-1.519c0.447-0.61,0.696-1.17,0.696-1.817c-0.004-0.652-0.143-1.253-0.484-1.805
		c-0.387-0.686-0.924-1.198-1.555-1.388C79.321,209.759,78.543,209.751,77.665,210.059 M79.614,205.297l-9.653,4.353l-3.174-6.943
		l1.091-0.547l2.645,5.716l2.926-1.341l-2.413-5.376l1.147-0.475l2.421,5.307l3.333-1.506l-2.755-5.921l1.16-0.539L79.614,205.297z
		 M75.731,196.209l-10.085,3.457l-1.261-3.827c-0.265-0.674-0.407-1.205-0.44-1.536c-0.081-0.533-0.102-0.987,0.004-1.433
		c0.171-0.441,0.403-0.804,0.696-1.166c0.358-0.293,0.773-0.58,1.302-0.727c0.814-0.312,1.656-0.291,2.409,0.041
		c0.814,0.339,1.441,1.236,1.893,2.648l0.92,2.625l4.106-1.43L75.731,196.209z M69.96,196.699l-0.854-2.623
		c-0.31-0.875-0.643-1.426-1.144-1.67c-0.432-0.232-0.944-0.285-1.485-0.076c-0.477,0.149-0.757,0.383-0.977,0.687
		c-0.228,0.307-0.33,0.689-0.362,1.009c0.041,0.265,0.126,0.729,0.337,1.266l0.92,2.625L69.96,196.699z M67.726,188.743
		c-1.726,0.354-3.146,0.216-4.375-0.486c-1.172-0.7-1.917-1.742-2.299-3.207c-0.236-0.938-0.211-1.846,0.069-2.729
		c0.277-0.884,0.802-1.616,1.51-2.2c0.704-0.584,1.591-1.018,2.654-1.243c1.005-0.295,2.043-0.263,2.934-0.047
		c0.952,0.222,1.693,0.684,2.344,1.333c0.582,0.706,0.969,1.455,1.205,2.389c0.232,0.937,0.211,1.913-0.073,2.796
		c-0.277,0.884-0.802,1.612-1.51,2.2C69.415,188.124,68.663,188.503,67.726,188.743 M67.413,187.28
		c1.257-0.269,2.161-0.837,2.702-1.695c0.525-0.796,0.749-1.75,0.452-2.751c-0.22-1.064-0.806-1.771-1.665-2.308
		c-0.867-0.477-1.961-0.578-3.296-0.248c-0.863,0.175-1.546,0.498-2.104,0.903c-0.562,0.47-0.94,1.018-1.197,1.645
		c-0.187,0.63-0.187,1.281-0.057,1.942c0.232,0.997,0.753,1.699,1.611,2.234C64.646,187.604,65.878,187.658,67.413,187.28
		 M65.402,168.808l0.134-1.421c1.225,0.112,2.161,0.529,2.874,1.248c0.655,0.648,1.09,1.536,1.241,2.655
		c0.155,1.121,0.061,2.09-0.334,2.835c-0.337,0.808-0.977,1.399-1.807,1.908c-0.831,0.505-1.706,0.812-2.755,0.912
		c-1.058,0.156-2.022,0.061-2.91-0.214c-0.875-0.348-1.608-0.873-2.128-1.573c-0.517-0.698-0.826-1.51-0.936-2.434
		c-0.163-1.056-0.004-2.019,0.398-2.822c0.46-0.741,1.176-1.386,2.121-1.75l0.464,1.282c-0.753,0.382-1.245,0.791-1.489,1.288
		c-0.313,0.558-0.436,1.127-0.31,1.854c0.122,0.796,0.383,1.474,0.854,1.972c0.415,0.43,1.034,0.753,1.673,0.873
		c0.7,0.134,1.412,0.201,2.08,0.071c0.92-0.11,1.648-0.299,2.34-0.688c0.618-0.332,1.05-0.809,1.302-1.37
		c0.256-0.631,0.378-1.27,0.244-1.868c-0.057-0.785-0.387-1.403-0.928-1.908C66.998,169.153,66.306,168.887,65.402,168.808
		 M64.703,157.738l0.325-1.396c1.152,0.238,2.007,0.773,2.658,1.489c0.643,0.775,1.013,1.657,1.038,2.766
		c0.017,1.177-0.199,2.127-0.667,2.865c-0.387,0.678-1.095,1.262-1.917,1.703c-0.879,0.374-1.815,0.606-2.857,0.637
		c-1.111,0.024-2.063-0.195-2.942-0.539c-0.806-0.402-1.465-0.989-1.913-1.742c-0.444-0.823-0.692-1.632-0.729-2.608
		c-0.033-1.046,0.248-1.929,0.773-2.661c0.46-0.735,1.229-1.312,2.234-1.605l0.326,1.397c-0.741,0.255-1.302,0.653-1.669,1.076
		c-0.309,0.489-0.496,1.124-0.427,1.781c-0.016,0.844,0.244,1.518,0.647,2.079c0.403,0.488,0.957,0.873,1.591,1.062
		c0.696,0.195,1.331,0.321,2.055,0.263c0.912,0.016,1.709-0.165,2.381-0.426c0.619-0.329,1.115-0.738,1.425-1.294
		c0.317-0.556,0.504-1.19,0.435-1.782c0.017-0.845-0.252-1.457-0.72-2.023C66.277,158.283,65.598,157.893,64.703,157.738
		 M57.605,153.679l0.118-1.224l8.412,0.542l-8.001-6.229l0.065-1.363l10.602,0.755l-0.053,1.233l-8.408-0.545l7.997,6.227
		l-0.13,1.359L57.605,153.679z M58.48,142.509l0.114-1.229l8.368,0.995l-7.696-6.654l0.195-1.348l10.553,1.266l-0.126,1.288
		l-8.355-1.056l7.623,6.647l-0.126,1.357L58.48,142.509z M56.539,136.919l0.143-0.83c0.578,0.118,1.005,0.421,1.286,0.834
		c0.293,0.358,0.439,0.89,0.313,1.528c-0.057,0.582-0.297,1.077-0.655,1.372c-0.358,0.355-0.826,0.504-1.478,0.509l0.085-0.906
		c0.399-0.026,0.667-0.128,0.81-0.309c0.211-0.18,0.301-0.428,0.333-0.751c0.037-0.389,0.004-0.715-0.106-0.92
		C57.157,137.238,56.913,137.086,56.539,136.919 M68.605,125.06l0.643-1.306c1.054,0.556,1.827,1.277,2.202,2.163
		c0.436,0.887,0.545,1.809,0.309,2.892c-0.24,1.149-0.712,2.012-1.29,2.61c-0.643,0.59-1.392,0.971-2.389,1.138
		c-0.924,0.175-1.901,0.145-2.853-0.075c-1.086-0.234-2.023-0.651-2.678-1.233c-0.729-0.592-1.242-1.355-1.486-2.225
		c-0.244-0.806-0.224-1.715-0.012-2.603c0.236-1.084,0.639-1.894,1.347-2.476c0.708-0.584,1.518-0.894,2.568-0.993l-0.008,1.435
		c-0.786,0.053-1.4,0.319-1.888,0.665c-0.428,0.413-0.741,0.969-0.867,1.605c-0.211,0.828-0.146,1.549,0.118,2.161
		c0.265,0.608,0.68,1.107,1.294,1.489c0.55,0.313,1.241,0.574,1.876,0.764c0.895,0.154,1.733,0.235,2.397,0.102
		c0.72-0.062,1.339-0.393,1.778-0.873c0.432-0.415,0.741-0.969,0.867-1.611c0.203-0.757,0.077-1.483-0.191-2.099
		C70.014,125.972,69.411,125.461,68.605,125.06 M63.026,119.45l0.452-1.325l4.412,1.465c0.191-0.633,0.232-1.084,0.073-1.424
		c-0.171-0.279-0.639-0.845-1.42-1.502c-0.542-0.507-0.96-0.873-1.123-1.149c-0.236-0.285-0.399-0.625-0.489-1.021
		c-0.028-0.397,0.008-0.781,0.11-1.164c0.183-0.565,0.272-0.82,0.272-0.82l1.201,0.377c-0.069,0.059-0.078,0.124-0.155,0.246
		c-0.012,0.128-0.089,0.248-0.089,0.248c-0.11,0.45-0.147,0.836,0.024,1.113c0.105,0.269,0.459,0.629,1.062,1.142
		c0.725,0.588,1.196,1.089,1.367,1.369c0.098,0.336,0.195,0.665,0.224,1.061c0.382-0.613,1.205-1.057,2.47-1.329l4.062-0.975
		l-0.614,1.63l-3.26,0.8c-0.937,0.231-1.542,0.436-1.954,0.659c-0.411,0.216-0.639,0.586-0.814,1.027l4.729,1.618l-0.452,1.324
		L63.026,119.45z M66.054,110.24l0.5-1.19l7.671,3.468l-5.356-8.645l0.578-1.249l9.67,4.308l-0.505,1.19l-7.675-3.402l5.36,8.583
		l-0.574,1.241L66.054,110.24z M70.668,100.009l0.562-1.119l7.508,3.844l-4.944-8.866l0.639-1.243l9.499,4.812l-0.562,1.117
		l-7.517-3.774l4.953,8.801l-0.643,1.241L70.668,100.009z M70.771,94.163l0.403-0.809c0.558,0.313,0.838,0.73,0.993,1.205
		c0.081,0.522,0.037,0.975-0.212,1.536c-0.313,0.558-0.671,0.914-1.147,1.125c-0.468,0.155-0.993,0.169-1.555-0.081l0.395-0.74
		c0.318,0.093,0.647,0.061,0.851-0.049c0.273-0.104,0.419-0.285,0.578-0.599c0.232-0.368,0.26-0.688,0.216-0.888
		C71.25,94.598,71.08,94.323,70.771,94.163 M87.444,91.978l-8.652-6.16l0.83-1.153l3.589,2.554l3.167-4.512l-3.598-2.558
		l0.826-1.155l8.652,6.159l-0.761,1.164l-4.086-2.863l-3.223,4.444l4.082,2.926L87.444,91.978z M93.003,84.184L87.647,74.17
		l0.953-1.144l10.911,3.645l-1.021,1.203l-3.276-1.16l-2.926,3.367l1.665,3.021L93.003,84.184z M91.672,79.044l2.414-2.762
		l-2.958-1.064c-0.94-0.346-1.636-0.608-2.194-0.862c0.399,0.563,0.802,1.121,1.135,1.737L91.672,79.044z M91.685,69.352l1.009-1.01
		l7,2.356l-2.275-6.851l1.001-0.946l2.808,8.728c0.346,1.14,0.538,1.872,0.497,2.325c0.021,0.456-0.215,0.892-0.647,1.303
		c-0.281,0.236-0.639,0.527-1.111,0.74l-0.831-0.856c0.403-0.092,0.749-0.323,1.099-0.614c0.22-0.238,0.375-0.484,0.403-0.806
		c0.037-0.389-0.171-0.928-0.492-1.673L91.685,69.352z M112.355,64.817l-1.066,0.94l-2.808-3.26
		c-0.639,1.237-1.302,2.086-2.019,2.732c-0.566,0.469-1.184,0.8-1.844,0.867c-0.659,0.133-1.241,0.075-1.729-0.229
		c-0.492-0.308-0.973-0.743-1.562-1.39l-2.051-2.341l1.066-0.939l1.994,2.272c0.696,0.847,1.371,1.303,1.958,1.294
		c0.521-0.016,1.062-0.226,1.485-0.575c0.777-0.64,1.379-1.494,1.937-2.548l-3.402-3.903l1.066-0.936L112.355,64.817z
		 M114.309,63.442l-6.198-8.658l1.18-0.802l2.523,3.562l4.473-3.219l-2.523-3.557l1.119-0.809l6.198,8.667l-1.181,0.794
		l-2.865-4.046l-4.464,3.148l2.857,4.114L114.309,63.442z M120.108,53.132c-0.83-1.51-1.144-2.976-0.822-4.308
		c0.321-1.337,1.136-2.365,2.441-3.089c0.826-0.505,1.763-0.743,2.67-0.717c0.912,0.019,1.734,0.228,2.531,0.759
		c0.794,0.531,1.441,1.248,1.938,2.204c0.565,0.901,0.863,1.842,0.899,2.816c0.045,0.915-0.171,1.809-0.635,2.606
		c-0.464,0.74-1.115,1.394-1.938,1.833c-0.826,0.505-1.758,0.745-2.665,0.725c-0.916-0.024-1.799-0.303-2.527-0.828
		C121.207,54.601,120.617,53.96,120.108,53.132 M121.415,52.409c0.602,1.162,1.452,1.831,2.4,2.116s1.868,0.182,2.764-0.319
		c0.965-0.562,1.489-1.292,1.709-2.246c0.229-1.02,0.005-2.084-0.663-3.252c-0.452-0.761-0.916-1.325-1.522-1.774
		c-0.553-0.375-1.176-0.633-1.827-0.629c-0.712-0.067-1.314,0.139-1.933,0.468c-0.826,0.505-1.417,1.231-1.701,2.18
		C120.352,49.902,120.637,51.031,121.415,52.409 M131.288,49.187l-0.542-1.156l3.676-1.664l0.541,1.153L131.288,49.187z
		 M133.806,39.862l1.152-0.477l3.149,7.851l2.125-9.95l1.286-0.522l3.939,9.873l-1.156,0.476l-3.158-7.787l-2.116,9.888
		l-1.286,0.528L133.806,39.862z M153.878,40.219l1.502-0.054c0.012,1.239-0.277,2.188-0.811,2.981
		c-0.59,0.79-1.363,1.367-2.434,1.656c-1.135,0.349-2.055,0.389-2.873,0.116s-1.559-0.732-2.133-1.504
		c-0.643-0.781-1.082-1.602-1.379-2.606c-0.285-1.066-0.326-2.049-0.176-2.942c0.216-0.894,0.611-1.634,1.197-2.296
		c0.646-0.652,1.403-1.103,2.34-1.341c1.001-0.293,1.913-0.269,2.792,0.073c0.817,0.277,1.546,0.863,2.104,1.765l-1.229,0.663
		c-0.46-0.631-1.006-1.074-1.502-1.316c-0.569-0.184-1.221-0.179-1.889,0.017c-0.736,0.188-1.359,0.586-1.803,1.129
		c-0.37,0.484-0.622,1.111-0.627,1.825c-0.069,0.71,0,1.367,0.195,2.039c0.244,0.867,0.627,1.618,1.026,2.18
		c0.472,0.565,1.017,0.944,1.652,1.133c0.573,0.118,1.221,0.118,1.822-0.024c0.807-0.246,1.364-0.648,1.75-1.264
		C153.781,41.901,153.984,41.138,153.878,40.219 M164.765,37.941l1.416,0.132c-0.045,1.168-0.395,2.11-1.05,2.896
		c-0.655,0.718-1.481,1.157-2.608,1.375c-1.128,0.218-2.093,0.124-2.846-0.205c-0.81-0.34-1.477-0.857-1.985-1.689
		c-0.513-0.761-0.875-1.705-1.042-2.7c-0.224-1.06-0.199-2.035,0.085-2.922c0.212-0.888,0.741-1.62,1.445-2.2
		c0.643-0.594,1.453-0.903,2.377-1.076c1.065-0.224,1.97-0.139,2.775,0.265c0.806,0.405,1.457,1.115,1.893,2.002l-1.295,0.595
		c-0.382-0.755-0.793-1.247-1.354-1.498c-0.497-0.242-1.14-0.303-1.803-0.169c-0.794,0.116-1.474,0.444-1.909,0.92
		c-0.501,0.473-0.761,1.103-0.883,1.74c-0.065,0.706-0.069,1.424,0.057,2.085c0.184,0.865,0.432,1.669,0.826,2.294
		c0.403,0.558,0.879,0.993,1.44,1.243c0.635,0.189,1.282,0.25,1.872,0.177c0.798-0.185,1.412-0.515,1.86-1.056
		C164.476,39.604,164.745,38.849,164.765,37.941 M167.956,30.435l6.626-0.535l0.87,10.62l-1.375,0.065l-0.802-9.318l-3.806,0.294
		l0.46,5.438c0.094,1.115,0.077,1.964,0.028,2.477c-0.053,0.517-0.224,0.954-0.577,1.247c-0.285,0.298-0.7,0.521-1.222,0.533
		c-0.265,0.039-0.65,0.002-1.095-0.105l0.114-1.223c0.252,0.087,0.443,0.107,0.639,0.126c0.265-0.043,0.542-0.208,0.696-0.454
		c0.09-0.254,0.146-0.832,0.094-1.683L167.956,30.435z M177.808,40.354l-0.35-10.636l7.7-0.242l0.012,1.239l-6.264,0.181
		l0.143,3.267l5.808-0.161l0.077,1.241l-5.872,0.159l0.109,3.654l6.524-0.224l0.012,1.234L177.808,40.354z M189.371,29.68
		l6.467,0.426l-0.639,9.374l0.903,0.088l-0.224,3.688l-1.229-0.054l0.179-2.519l-7.049-0.482l-0.171,2.46l-1.229-0.053l0.228-3.755
		l0.839,0.082c0.96-1.207,1.534-3.823,1.843-7.698L189.371,29.68z M194.356,31.263l-3.744-0.289l0.008,0.587
		c-0.081,0.901-0.265,2.122-0.545,3.656c-0.216,1.605-0.659,2.865-1.205,3.789l4.908,0.404L194.356,31.263z M198.161,35.728
		c0.298-1.726,1.006-3.028,2.125-3.83c1.119-0.804,2.385-1.139,3.858-0.868c0.96,0.154,1.827,0.565,2.49,1.147
		c0.725,0.594,1.176,1.349,1.481,2.222c0.236,0.935,0.272,1.915,0.109,2.94c-0.166,1.091-0.582,1.964-1.172,2.753
		c-0.529,0.727-1.229,1.248-2.108,1.555c-0.866,0.308-1.786,0.353-2.682,0.198c-0.96-0.157-1.835-0.566-2.494-1.148
		c-0.721-0.588-1.168-1.347-1.474-2.287C198.055,37.543,198.014,36.625,198.161,35.728 M199.634,35.998
		c-0.257,1.278-0.098,2.334,0.477,3.17c0.569,0.835,1.367,1.364,2.393,1.528c1.025,0.163,1.962-0.071,2.727-0.648
		c0.781-0.642,1.327-1.63,1.583-2.972c0.151-0.832,0.094-1.617-0.105-2.289c-0.13-0.661-0.46-1.277-1.005-1.722
		c-0.48-0.438-1.042-0.689-1.742-0.815c-0.961-0.159-1.893,0.012-2.727,0.584C200.404,33.341,199.85,34.393,199.634,35.998
		 M209.064,42.823l2.873-10.266l3.797,1.076c0.826,0.209,1.384,0.519,1.812,0.824c0.419,0.362,0.704,0.781,0.851,1.314
		c0.15,0.472,0.167,0.995,0.057,1.438c-0.171,0.439-0.402,0.806-0.765,1.162c-0.285,0.299-0.762,0.513-1.295,0.594
		c0.554,0.379,0.973,0.806,1.177,1.35c0.207,0.539,0.22,1.125,0.036,1.694c-0.118,0.509-0.346,0.875-0.639,1.239
		c-0.362,0.354-0.651,0.651-1.05,0.747c-0.338,0.161-0.736,0.252-1.258,0.206c-0.456,0.018-1.033-0.103-1.664-0.294L209.064,42.823z
		 M212.067,37.25l2.223,0.605c0.569,0.184,1.013,0.291,1.343,0.257c0.325,0.03,0.655-0.065,0.879-0.31
		c0.272-0.164,0.428-0.411,0.529-0.791c0.098-0.317,0.126-0.642,0.024-0.975c-0.102-0.271-0.272-0.548-0.582-0.708
		c-0.24-0.218-0.74-0.396-1.502-0.599l-2.03-0.584L212.067,37.25z M210.769,42.007l2.544,0.698c0.439,0.107,0.757,0.199,0.948,0.222
		c0.325,0.03,0.59-0.008,0.854-0.049c0.269-0.105,0.476-0.214,0.691-0.456c0.146-0.177,0.306-0.488,0.407-0.808
		c0.098-0.379,0.126-0.702-0.032-1.042c-0.098-0.398-0.334-0.616-0.64-0.842c-0.305-0.225-0.806-0.401-1.44-0.591l-2.34-0.682
		L210.769,42.007z M217.057,45.019l7.28-8.809l1.449,0.526l0.729,11.457l-1.51-0.531l-0.127-3.459l-4.297-1.391l-2.076,2.666
		L217.057,45.019z M221.326,41.845l3.468,1.178l-0.15-3.205c0.028-0.907-0.033-1.695,0.028-2.336
		c-0.383,0.612-0.761,1.228-1.213,1.767L221.326,41.845z M228.945,49.337l3.805-8.551l-3.179-1.474l0.501-1.123l7.676,3.466
		l-0.505,1.121l-3.179-1.408l-3.878,8.546L228.945,49.337z M234.74,51.972l4.803-9.43l6.833,3.451l-0.566,1.119l-5.587-2.814
		l-1.449,2.921l5.217,2.646l-0.565,1.12l-5.205-2.715l-1.673,3.228l5.832,2.962l-0.565,1.117L234.74,51.972z M249.818,48.143
		l5.576,3.593l-5.734,8.95l-1.168-0.76l5.046-7.913l-3.187-1.998l-2.979,4.599c-0.611,0.917-1.066,1.591-1.421,1.945
		c-0.37,0.421-0.777,0.641-1.237,0.663c-0.464,0.09-0.842-0.019-1.27-0.315c-0.313-0.163-0.549-0.381-0.843-0.732l0.875-0.958
		c0.103,0.269,0.22,0.41,0.407,0.496c0.248,0.152,0.505,0.177,0.777,0.071c0.265-0.105,0.627-0.525,1.099-1.323L249.818,48.143z
		 M258.19,53.759l1.099,0.817l-2.816,3.573l1.998,1.557c0.965,0.745,1.559,1.386,1.771,1.928c0.269,0.545,0.346,1.074,0.236,1.581
		c-0.114,0.513-0.354,1.011-0.651,1.369c-0.525,0.665-1.209,1.058-2.002,1.178c-0.798,0.182-1.86-0.246-3.008-1.198l-3.211-2.454
		L258.19,53.759z M253.493,62.028l2.003,1.559c0.781,0.661,1.473,0.92,1.937,0.834c0.469-0.083,0.88-0.37,1.177-0.732
		c0.297-0.36,0.398-0.743,0.423-1.066c-0.024-0.393-0.126-0.729-0.358-1.009c-0.224-0.347-0.703-0.784-1.437-1.309l-1.506-1.187
		L253.493,62.028z M267.078,70.353l0.794,1.247c-1.034,0.619-2.031,0.914-3.004,0.822c-0.969-0.096-1.839-0.502-2.674-1.298
		c-0.834-0.796-1.347-1.561-1.526-2.424c-0.183-0.798-0.102-1.701,0.253-2.578c0.338-0.881,0.81-1.744,1.526-2.46
		c0.793-0.766,1.562-1.343,2.438-1.648c0.875-0.31,1.791-0.352,2.617-0.143c0.891,0.216,1.628,0.674,2.283,1.325
		c0.776,0.72,1.281,1.553,1.392,2.407c0.175,0.926,0.024,1.827-0.456,2.755l-1.225-0.767c0.321-0.687,0.455-1.389,0.378-1.917
		c-0.077-0.591-0.415-1.142-0.892-1.643c-0.598-0.513-1.212-0.897-1.916-0.967c-0.647-0.062-1.307,0.005-1.921,0.334
		c-0.619,0.332-1.177,0.736-1.62,1.276c-0.647,0.655-1.103,1.328-1.359,1.955c-0.261,0.689-0.321,1.335-0.183,1.936
		c0.199,0.669,0.541,1.155,0.943,1.652c0.606,0.513,1.226,0.832,1.941,0.836C265.576,71.12,266.317,70.865,267.078,70.353
		 M274.464,68l0.944,1.002l-3.366,3.258c0.411,0.431,0.843,0.665,1.168,0.697c0.387,0.035,1.055-0.158,2.003-0.524
		c0.74-0.255,1.282-0.466,1.607-0.497c0.329-0.032,0.712,0.004,1.099,0.106c0.375,0.1,0.684,0.325,0.98,0.612
		c0.411,0.432,0.587,0.641,0.587,0.641l-0.859,0.828c-0.064-0.004-0.122-0.077-0.175-0.209c-0.122-0.078-0.179-0.148-0.24-0.218
		c-0.293-0.291-0.603-0.45-0.928-0.48c-0.257-0.024-0.789,0.12-1.538,0.439c-0.884,0.372-1.481,0.509-1.803,0.477
		c-0.396,0.028-0.709-0.065-1.018-0.227c0.329,0.617,0.309,1.526-0.009,2.796l-1.033,4.003l-1.25-1.229l0.904-3.292
		c0.211-0.892,0.346-1.596,0.325-2.056c-0.024-0.455-0.183-0.858-0.537-1.221l-3.643,3.425l-0.948-1.001L274.464,68z
		 M280.939,75.188l0.753,0.987l-6.621,5.223l10.101-0.791l0.867,1.123l-8.371,6.555l-0.753-0.985l6.617-5.224l-10.101,0.794
		l-0.867-1.125L280.939,75.188z M287.98,84.518l0.684,1.044l-7.139,4.588l10.199,0.189l0.732,1.179l-8.941,5.716l-0.684-1.04
		l7.069-4.529l-10.121-0.253l-0.806-1.182L287.98,84.518z M292.961,87.594l0.513,0.768c-0.545,0.212-1.074,0.287-1.579,0.173
		c-0.447-0.107-0.867-0.47-1.213-0.958c-0.338-0.556-0.488-1.021-0.374-1.537c0.053-0.513,0.35-0.939,0.846-1.349l0.452,0.759
		c-0.224,0.24-0.37,0.486-0.403,0.745c-0.023,0.256,0.017,0.519,0.253,0.804c0.163,0.342,0.398,0.562,0.655,0.646
		C292.359,87.732,292.624,87.693,292.961,87.594 M296.339,98.525l0.541,1.156l-7.688,3.495l9.991,1.671l0.598,1.229l-9.657,4.415
		l-0.545-1.159l7.622-3.505l-9.93-1.597l-0.595-1.295L296.339,98.525z M291.15,112.672l10.028-3.468l0.456,1.346l-4.111,1.428
		l1.787,5.177l4.106-1.428l0.456,1.349l-10.024,3.466l-0.464-1.346l4.717-1.632l-1.782-5.183l-4.709,1.634L291.15,112.672z
		 M300.042,129.266l-0.004,1.429c-1.241,0.013-2.186-0.338-2.975-0.932c-0.721-0.588-1.229-1.421-1.515-2.554
		c-0.284-1.066-0.256-2.039,0.021-2.859c0.33-0.815,0.851-1.481,1.624-2.059c0.773-0.576,1.652-0.948,2.649-1.181
		c1.07-0.285,2.043-0.257,2.935-0.043c0.891,0.214,1.688,0.684,2.278,1.325c0.591,0.641,0.969,1.457,1.209,2.323
		c0.224,1.066,0.203,1.977-0.207,2.847c-0.338,0.812-0.981,1.472-1.877,1.966l-0.59-1.29c0.684-0.389,1.119-0.869,1.371-1.431
		c0.245-0.5,0.302-1.142,0.11-1.811c-0.191-0.8-0.521-1.418-1.066-1.86c-0.472-0.436-1.099-0.688-1.746-0.753
		c-0.708-0.062-1.433-0.004-2.092,0.127c-0.866,0.242-1.615,0.494-2.238,0.958c-0.562,0.4-0.932,0.885-1.185,1.51
		c-0.19,0.635-0.187,1.221-0.053,1.887c0.191,0.736,0.591,1.357,1.124,1.801C298.37,129.042,299.135,129.241,300.042,129.266
		 M297.446,135.332l9.267-1.656l-0.646-3.443l1.262-0.271l1.48,8.339l-1.188,0.21l-0.652-3.443l-9.267,1.652L297.446,135.332z
		 M309.094,140.8l0.064,1.309l-8.387,0.631l8.893,5.012l0.125,1.382l-10.622,0.873l-0.073-1.311l8.335-0.702l-8.832-4.94
		l-0.135-1.38L309.094,140.8z M299.278,155.027l9.347,0.173l0.074-3.504l1.24-0.012l-0.158,8.444l-1.232-0.051l0.076-3.511
		l-9.417-0.185L299.278,155.027z M309.766,161.036l-0.074,1.427l-6.792,2.993l6.37,3.474l-0.139,1.414l-7.953-4.597
		c-0.985-0.547-1.661-1.005-1.954-1.355c-0.284-0.354-0.443-0.757-0.386-1.406c0.032-0.323,0.138-0.767,0.321-1.27l1.229,0.053
		c-0.228,0.366-0.402,0.743-0.443,1.195c0.032,0.323,0.073,0.654,0.31,0.877c0.167,0.274,0.659,0.577,1.473,0.917L309.766,161.036z
		 M297.841,173.435l9.278,1.602l0.596-3.461l1.213,0.248l-1.441,8.258l-1.217-0.186l0.59-3.457l-9.213-1.596L297.841,173.435z
		 M295.114,186.319l8.994,2.546l0.978-3.419l1.204,0.375l-2.274,8.115l-1.201-0.381l0.912-3.357l-9.007-2.493L295.114,186.319z
		 M293.356,192.461l9.91,3.874L301.8,200.1c-0.252,0.623-0.496,1.121-0.654,1.433c-0.31,0.492-0.595,0.792-0.953,1.085
		c-0.346,0.22-0.813,0.37-1.273,0.393c-0.521,0.016-0.977-0.022-1.474-0.204c-0.817-0.34-1.481-0.924-1.794-1.664
		c-0.387-0.757-0.277-1.854,0.244-3.233l0.96-2.578l-4.017-1.553L293.356,192.461z M298.044,195.835l-1.018,2.509
		c-0.281,0.883-0.407,1.52-0.195,1.994c0.15,0.472,0.509,0.826,1.136,1.082c0.374,0.167,0.761,0.21,1.159,0.116
		c0.399-0.096,0.676-0.327,0.908-0.631c0.139-0.183,0.305-0.558,0.565-1.185l0.956-2.509L298.044,195.835z M299.994,204.741
		l-0.646,1.305l-7.334,0.474l4.684,5.456l-0.573,1.245l-5.905-7.011c-0.761-0.851-1.151-1.536-1.376-1.951
		c-0.154-0.405-0.105-0.918,0.135-1.414c0.171-0.379,0.398-0.745,0.83-1.16l1.059,0.49c-0.351,0.291-0.578,0.599-0.806,0.969
		c-0.094,0.315-0.127,0.635-0.033,0.971c0.102,0.336,0.452,0.757,1.05,1.337L299.994,204.741z M294.87,215.444l-3.271,5.61
		l-8.14-4.685l-0.472,0.867l-3.207-1.868l0.631-1.108l2.156,1.247l3.447-6.119l-2.096-1.239l0.558-1.052l3.276,1.811l-0.399,0.741
		c0.655,1.363,2.707,3.059,6.162,5.014L294.87,215.444z M291.256,219.197l1.807-3.209l-0.432-0.304
		c-0.806-0.398-1.848-1.084-3.117-2.055c-1.286-0.897-2.234-1.84-2.861-2.743l-2.49,4.251L291.256,219.197z M281.765,217.057
		l6.316,9.513l-0.899,1.286l-11.204-2.636l0.908-1.339l3.361,0.901l2.563-3.654l-1.94-2.853L281.765,217.057z M283.564,222.106
		l-2.1,2.925l3.044,0.812c0.884,0.276,1.648,0.482,2.218,0.663c-0.479-0.496-0.943-1.064-1.351-1.624L283.564,222.106z"/>
	<path fill="#00A79D" d="M117.902,264.929l-2.202-1.756l4.603-5.569l-4.538,2.334l-1.489-1.169l1.424-4.92l-4.534,5.635
		l-2.071-1.689l6.861-8.353l2.462,2.011l-1.489,5.765l5.25-2.721l2.527,2.073L117.902,264.929z M128.589,272.047l-2.268-1.485
		l3.952-5.967l-7.708,3.502l-2.197-1.489l5.953-9.004l2.268,1.489l-3.562,5.439l7.062-3.105l2.462,1.615L128.589,272.047z
		 M139.858,277.618l-2.523-1.164l2.072-4.345l-3.691-1.746l-2.071,4.341l-2.527-1.229l4.599-9.781l2.527,1.235l-1.685,3.555
		l3.695,1.75l1.681-3.559l2.527,1.162L139.858,277.618z M153.463,273.475l-3.175-1.101l-2.909,8.164l-2.658-0.91l2.914-8.227
		l-3.174-1.104l0.712-1.939l9.002,3.168L153.463,273.475z M162.726,277.361c-0.131,0.45-0.326,0.906-0.582,1.292
		c-0.261,0.458-0.582,0.782-0.973,0.975c-0.517,0.322-1.034,0.518-1.62,0.578c-0.582,0.133-1.229,0.063-2.006-0.124l-1.681-0.454
		l-0.847,3.434l-2.719-0.647l2.588-10.498l4.469,1.102c0.647,0.195,1.233,0.389,1.62,0.586c0.456,0.256,0.781,0.519,1.103,0.84
		c0.321,0.396,0.582,0.781,0.717,1.297C162.921,276.195,162.856,276.777,162.726,277.361 M159.873,276.715
		c0.131-0.261,0.065-0.52,0-0.782c-0.126-0.258-0.256-0.449-0.451-0.584c-0.257-0.187-0.517-0.321-0.773-0.384
		c-0.261-0.063-0.651-0.193-1.038-0.328l-0.451-0.062l-0.781,3.111l0.716,0.197c0.517,0.124,0.839,0.187,1.164,0.187
		c0.321,0,0.586-0.062,0.843-0.124c0.195-0.134,0.387-0.26,0.517-0.46C159.747,277.294,159.812,277.038,159.873,276.715
		 M174.516,276.195l-5.507,7.71c-0.321,0.45-0.65,0.837-1.033,1.034c-0.326,0.259-0.647,0.452-1.042,0.519
		c-0.321,0.065-0.644,0.127-0.969,0.065c-0.256,0-0.582,0-0.907-0.065c-0.321-0.066-0.713-0.197-1.168-0.26
		c-0.452-0.127-0.708-0.193-0.903-0.259l0.451-2.269h0.195c0.065,0.068,0.257,0.132,0.517,0.193
		c0.195,0.062,0.456,0.132,0.717,0.197c0.447,0.126,0.843,0.126,1.164,0.062c0.321,0,0.517-0.128,0.582-0.26l-2.723-8.742
		l2.982,0.582l1.616,5.502l3.179-4.595L174.516,276.195z M184.425,290.118l-2.527-0.193l0.195-2.527l-6.475-0.584l-0.265,2.471
		l-2.527-0.199l0.396-4.536l0.838,0.065c0.651-1.166,1.168-2.396,1.624-3.887c0.451-1.423,0.712-2.979,0.838-4.668l8.034,0.718
		l-0.777,8.681l1.103,0.127L184.425,290.118z M180.991,285.198l0.586-6.545l-2.653-0.258c-0.195,1.298-0.521,2.529-0.911,3.562
		c-0.387,1.104-0.773,2.072-1.295,2.854L180.991,285.198z M196.728,286.948l-2.844,0.19l-0.908-2.134l-3.947,0.256l-0.586,2.2
		l-2.85,0.199l3.301-11.074l3.24-0.195L196.728,286.948z M192.199,283.062l-1.555-3.757l-1.037,3.883L192.199,283.062z
		 M211.176,277.361c0.069,0.521,0.069,0.971-0.065,1.49c-0.061,0.453-0.261,0.842-0.517,1.23c-0.321,0.513-0.777,0.905-1.233,1.166
		c-0.513,0.323-1.16,0.513-1.938,0.646l-1.685,0.325l0.578,3.429l-2.779,0.458l-1.755-10.622l4.534-0.779
		c0.716-0.13,1.298-0.13,1.75-0.067c0.521,0,0.907,0.135,1.359,0.328c0.456,0.197,0.847,0.519,1.103,0.905
		C210.85,276.261,211.05,276.777,211.176,277.361 M208.323,277.945c-0.057-0.327-0.19-0.584-0.386-0.781
		c-0.191-0.193-0.392-0.323-0.647-0.323c-0.257-0.063-0.586-0.126-0.843-0.063c-0.256,0-0.646,0.063-1.099,0.126l-0.452,0.067
		l0.514,3.235l0.781-0.124c0.451-0.132,0.842-0.197,1.168-0.325c0.256-0.063,0.513-0.259,0.646-0.452
		c0.195-0.193,0.261-0.391,0.317-0.588C208.392,278.46,208.323,278.204,208.323,277.945 M222.835,275.805
		c0.521,1.681,0.456,3.109-0.126,4.401c-0.651,1.231-1.819,2.143-3.435,2.658c-1.681,0.584-3.109,0.457-4.339-0.193
		c-1.298-0.649-2.136-1.812-2.718-3.434c-0.521-1.619-0.46-3.111,0.195-4.336c0.646-1.298,1.745-2.208,3.431-2.721
		c1.615-0.521,3.104-0.458,4.334,0.193C221.412,273.018,222.315,274.184,222.835,275.805 M220.178,279.562
		c0.135-0.387,0.199-0.845,0.199-1.294c0-0.456-0.134-0.974-0.26-1.553c-0.257-0.655-0.46-1.104-0.782-1.49
		c-0.256-0.386-0.582-0.718-0.838-0.907c-0.326-0.195-0.717-0.323-1.038-0.323s-0.712,0-1.033,0.128s-0.582,0.259-0.843,0.452
		c-0.261,0.265-0.521,0.519-0.647,0.909c-0.13,0.321-0.199,0.712-0.199,1.231c0,0.513,0.069,1.033,0.261,1.617
		c0.195,0.646,0.451,1.166,0.716,1.489c0.257,0.385,0.578,0.717,0.904,0.906c0.329,0.197,0.65,0.323,0.977,0.323
		c0.387,0.063,0.708,0,1.033-0.126c0.391-0.065,0.647-0.259,0.903-0.521C219.792,280.206,220.052,279.885,220.178,279.562
		 M231.326,278.527c-0.777,0.324-1.49,0.521-2.206,0.584c-0.708,0.063-1.429-0.062-2.007-0.26c-0.65-0.261-1.232-0.647-1.754-1.166
		c-0.513-0.584-0.965-1.231-1.355-2.074c-0.321-0.772-0.521-1.553-0.586-2.334c0-0.71,0.065-1.426,0.326-2.069
		c0.26-0.646,0.65-1.168,1.164-1.685c0.521-0.519,1.168-0.975,1.949-1.296c0.387-0.193,0.773-0.324,1.159-0.391
		c0.326-0.131,0.651-0.198,0.974-0.259c0.391,0,0.646-0.065,0.973-0.065h0.712l1.103,2.46l-0.325,0.067
		c-0.195,0-0.383-0.067-0.647-0.13c-0.256-0.063-0.517-0.124-0.842-0.193h-0.904c-0.325,0.069-0.646,0.13-0.98,0.256
		c-0.387,0.198-0.708,0.391-0.965,0.655c-0.256,0.257-0.521,0.513-0.65,0.897c-0.127,0.391-0.191,0.849-0.191,1.303
		c0,0.513,0.13,1.031,0.391,1.615c0.26,0.649,0.582,1.105,0.969,1.427c0.325,0.391,0.712,0.584,1.103,0.716
		c0.325,0.129,0.712,0.191,1.103,0.129c0.387,0,0.713-0.129,1.03-0.261c0.329-0.135,0.65-0.328,0.911-0.521
		c0.257-0.258,0.452-0.515,0.647-0.771c0.195-0.197,0.321-0.458,0.451-0.655c0.131-0.257,0.195-0.448,0.257-0.58l0.261-0.13
		l1.041,2.398c-0.199,0.195-0.391,0.391-0.59,0.582c-0.191,0.193-0.387,0.387-0.578,0.584c-0.26,0.257-0.581,0.45-0.842,0.584
		C232.164,278.139,231.777,278.332,231.326,278.527 M241.235,273.797c-0.712,0.387-1.424,0.646-2.141,0.777
		c-0.712,0.13-1.429,0.13-2.071-0.067c-0.651-0.189-1.233-0.513-1.815-0.969c-0.586-0.521-1.099-1.164-1.555-1.943
		c-0.387-0.777-0.646-1.487-0.777-2.269c-0.13-0.708-0.061-1.423,0.131-2.074c0.126-0.645,0.451-1.292,0.973-1.811
		c0.455-0.582,1.033-1.101,1.811-1.491c0.391-0.189,0.717-0.387,1.104-0.521c0.325-0.126,0.646-0.256,0.968-0.323
		c0.33-0.063,0.647-0.126,0.912-0.126c0.321-0.063,0.582-0.063,0.777-0.063l1.225,2.269l-0.252,0.191
		c-0.199-0.062-0.387-0.062-0.647-0.126c-0.26-0.065-0.521-0.065-0.847-0.065c-0.321,0-0.582,0-0.903,0.065
		c-0.325,0.063-0.646,0.191-0.973,0.323c-0.329,0.189-0.646,0.45-0.907,0.711c-0.257,0.323-0.387,0.646-0.521,1.031
		c-0.121,0.391-0.19,0.781-0.121,1.303c0.121,0.449,0.256,0.968,0.577,1.553c0.326,0.584,0.713,1.037,1.099,1.354
		c0.387,0.326,0.777,0.521,1.168,0.584c0.387,0.071,0.709,0.135,1.104,0c0.387-0.062,0.712-0.193,1.033-0.323
		c0.326-0.191,0.582-0.385,0.782-0.646c0.256-0.256,0.447-0.513,0.646-0.777c0.126-0.256,0.257-0.517,0.321-0.714
		c0.127-0.254,0.191-0.447,0.261-0.582l0.261-0.193l1.229,2.267c-0.13,0.261-0.325,0.454-0.521,0.711
		c-0.126,0.195-0.321,0.393-0.517,0.586c-0.257,0.256-0.521,0.517-0.777,0.712C242.012,273.341,241.687,273.538,241.235,273.797
		 M254.576,265.185l-2.267,1.49l-4.013-5.896l0.387,8.485l-2.206,1.49l-6.153-8.941l2.271-1.492l3.691,5.315l-0.261-7.706
		l2.463-1.688L254.576,265.185z M264.486,257.153l-2.072,1.679l-4.603-5.502l1.168,8.42l-2.002,1.679l-6.936-8.286l2.067-1.75
		l4.147,4.992l-0.969-7.646l2.267-1.882L264.486,257.153z"/>
</g>
</svg>
